<svg id="blob-3" viewBox="0 0 617 677" fill="none" xmlns="http://www.w3.org/2000/svg">
    <g style="mix-blend-mode:soft-light">
        <path fill-rule="evenodd" clip-rule="evenodd" d="M320.308 1.6075C382.915 -2.99305 445.277 18.9207 497.141 54.2893C548.188 89.1009 588.977 139.246 608.23 197.956C626.46 253.548 608.13 311.728 600.588 369.744C592.932 428.636 599.862 493.239 563.716 540.36C526.946 588.296 462.89 601.267 406.453 622.828C345.126 646.258 282.711 690.514 219.797 671.755C156.898 653 129.031 581.718 90.4609 528.61C55.2215 480.087 13.9806 434.061 4.2039 374.895C-5.67588 315.105 7.94428 253.315 36.1039 199.654C63.3674 147.701 111.287 112.65 159.425 79.1058C209.272 44.3701 259.716 6.06005 320.308 1.6075Z" stroke="currentColor"/>
    </g>
</svg>
