<svg id="blob-2" viewBox="0 0 642 602" fill="none" xmlns="http://www.w3.org/2000/svg">
    <g style="mix-blend-mode:soft-light">
        <path fill-rule="evenodd" clip-rule="evenodd" d="M306.084 39.2381C364.265 49.6247 420.255 59.505 472.03 88.0052C530.736 120.321 595.568 152.263 622.714 213.531C650.997 277.364 642.698 352.446 618.156 417.808C594.33 481.262 548.617 535.763 489.364 568.674C434.207 599.311 369.134 588.76 306.084 591.145C239.907 593.648 169.772 616.088 112.447 582.929C53.0477 548.569 11.5722 483.17 1.96355 415.225C-7.03121 351.621 49.5495 300.305 63.6153 237.627C80.0292 164.486 32.6589 67.3928 90.6745 19.9242C147.869 -26.8727 233.335 26.2506 306.084 39.2381Z" stroke="currentColor"/>
    </g>
</svg>
