<svg id="logo" viewBox="0 0 55 14" fill="none" xmlns="http://www.w3.org/2000/svg">
    <path d="M1.896 8.128C2.088 8.432 2.324 8.672 2.604 8.848C2.884 9.024 3.204 9.112 3.564 9.112C3.7 9.112 3.844 9.096 3.996 9.064C4.148 9.032 4.312 8.98 4.488 8.908C4.672 8.828 4.872 8.72 5.088 8.584C5.312 8.448 5.556 8.272 5.82 8.056L6.048 9.268C5.664 9.532 5.284 9.752 4.908 9.928C4.54 10.104 4.116 10.192 3.636 10.192C3.164 10.192 2.728 10.108 2.328 9.94C1.936 9.772 1.596 9.54 1.308 9.244C1.028 8.94 0.808 8.58 0.648 8.164C0.488 7.748 0.408 7.292 0.408 6.796C0.408 6.396 0.488 6.012 0.648 5.644C0.808 5.276 1.024 4.952 1.296 4.672C1.576 4.384 1.9 4.156 2.268 3.988C2.636 3.82 3.028 3.736 3.444 3.736C4.1 3.736 4.636 3.88 5.052 4.168C5.468 4.456 5.84 4.868 6.168 5.404L1.896 8.128ZM4.584 5.212C4.448 5.06 4.288 4.956 4.104 4.9C3.928 4.844 3.732 4.816 3.516 4.816C3.236 4.816 2.976 4.868 2.736 4.972C2.496 5.068 2.288 5.204 2.112 5.38C1.936 5.548 1.796 5.756 1.692 6.004C1.596 6.244 1.548 6.508 1.548 6.796C1.548 6.836 1.548 6.888 1.548 6.952C1.548 7.016 1.552 7.076 1.56 7.132L4.584 5.212ZM13.424 10L12.344 10.144V9.172C12.048 9.508 11.716 9.764 11.348 9.94C10.988 10.108 10.58 10.192 10.124 10.192C9.69197 10.192 9.28797 10.104 8.91197 9.928C8.53597 9.752 8.20797 9.512 7.92797 9.208C7.64797 8.904 7.42797 8.552 7.26797 8.152C7.10797 7.752 7.02797 7.328 7.02797 6.88C7.02797 6.44 7.10797 6.032 7.26797 5.656C7.42797 5.272 7.64397 4.94 7.91597 4.66C8.19597 4.372 8.52397 4.148 8.89997 3.988C9.28397 3.82 9.69197 3.736 10.124 3.736C10.548 3.736 10.944 3.82 11.312 3.988C11.68 4.156 12 4.364 12.272 4.612V1.708L13.424 1.516V10ZM10.232 9.112C10.552 9.112 10.844 9.06 11.108 8.956C11.38 8.852 11.612 8.708 11.804 8.524C11.996 8.332 12.144 8.104 12.248 7.84C12.36 7.576 12.416 7.288 12.416 6.976C12.416 6.656 12.36 6.364 12.248 6.1C12.136 5.836 11.98 5.608 11.78 5.416C11.58 5.224 11.34 5.076 11.06 4.972C10.788 4.868 10.488 4.816 10.16 4.816C9.89597 4.816 9.64397 4.872 9.40397 4.984C9.16397 5.096 8.95197 5.252 8.76797 5.452C8.59197 5.644 8.44797 5.872 8.33597 6.136C8.23197 6.4 8.17997 6.68 8.17997 6.976C8.17997 7.256 8.23197 7.524 8.33597 7.78C8.44797 8.036 8.59597 8.264 8.77997 8.464C8.96397 8.656 9.17997 8.812 9.42797 8.932C9.68397 9.052 9.95197 9.112 10.232 9.112ZM15.8999 8.128C16.0919 8.432 16.3279 8.672 16.6079 8.848C16.8879 9.024 17.2079 9.112 17.5679 9.112C17.7039 9.112 17.8479 9.096 17.9999 9.064C18.1519 9.032 18.3159 8.98 18.4919 8.908C18.6759 8.828 18.8759 8.72 19.0919 8.584C19.3159 8.448 19.5599 8.272 19.8239 8.056L20.0519 9.268C19.6679 9.532 19.2879 9.752 18.9119 9.928C18.5439 10.104 18.1199 10.192 17.6399 10.192C17.1679 10.192 16.7319 10.108 16.3319 9.94C15.9399 9.772 15.5999 9.54 15.3119 9.244C15.0319 8.94 14.8119 8.58 14.6519 8.164C14.4919 7.748 14.4119 7.292 14.4119 6.796C14.4119 6.396 14.4919 6.012 14.6519 5.644C14.8119 5.276 15.0279 4.952 15.2999 4.672C15.5799 4.384 15.9039 4.156 16.2719 3.988C16.6399 3.82 17.0319 3.736 17.4479 3.736C18.1039 3.736 18.6399 3.88 19.0559 4.168C19.4719 4.456 19.8439 4.868 20.1719 5.404L15.8999 8.128ZM18.5879 5.212C18.4519 5.06 18.2919 4.956 18.1079 4.9C17.9319 4.844 17.7359 4.816 17.5199 4.816C17.2399 4.816 16.9799 4.868 16.7399 4.972C16.4999 5.068 16.2919 5.204 16.1159 5.38C15.9399 5.548 15.7999 5.756 15.6959 6.004C15.5999 6.244 15.5519 6.508 15.5519 6.796C15.5519 6.836 15.5519 6.888 15.5519 6.952C15.5519 7.016 15.5559 7.076 15.5639 7.132L18.5879 5.212ZM22.4719 4.636H22.4959C22.6719 4.324 22.9239 4.096 23.2519 3.952C23.5879 3.808 23.9359 3.736 24.2959 3.736C25.0239 3.736 25.6039 3.92 26.0359 4.288C26.4679 4.656 26.6839 5.164 26.6839 5.812V10L25.5319 10.192V5.908C25.5319 5.548 25.4159 5.268 25.1839 5.068C24.9519 4.86 24.6199 4.756 24.1879 4.756C23.6759 4.756 23.2599 4.916 22.9399 5.236C22.6279 5.556 22.4719 6 22.4719 6.568V10L21.3199 10.192V3.928L22.4719 3.736V4.636ZM30.2078 1.768C30.7998 1.768 31.3478 1.88 31.8518 2.104C32.3558 2.328 32.7878 2.628 33.1478 3.004C33.5158 3.38 33.8038 3.816 34.0118 4.312C34.2198 4.808 34.3238 5.332 34.3238 5.884C34.3238 6.436 34.2198 6.96 34.0118 7.456C33.8038 7.952 33.5158 8.392 33.1478 8.776C32.7798 9.152 32.3438 9.452 31.8398 9.676C31.3438 9.892 30.8038 10 30.2198 10H28.1198V1.768H30.2078ZM30.1718 8.92C30.5398 8.92 30.8998 8.848 31.2518 8.704C31.6118 8.56 31.9318 8.356 32.2118 8.092C32.4918 7.82 32.7158 7.5 32.8838 7.132C33.0598 6.756 33.1478 6.34 33.1478 5.884C33.1478 5.436 33.0598 5.028 32.8838 4.66C32.7158 4.284 32.4918 3.964 32.2118 3.7C31.9318 3.428 31.6118 3.22 31.2518 3.076C30.8998 2.924 30.5358 2.848 30.1598 2.848H29.2958V8.92H30.1718Z" fill="currentColor"/>
    <path d="M49.412 4.324L48.692 4.504C49.204 4.824 49.46 5.312 49.46 5.968C49.46 6.384 49.352 6.748 49.136 7.06C48.92 7.372 48.608 7.596 48.2 7.732V7.756C48.664 7.916 49.028 8.172 49.292 8.524C49.556 8.868 49.688 9.292 49.688 9.796C49.688 10.164 49.616 10.496 49.472 10.792C49.336 11.088 49.14 11.34 48.884 11.548C48.636 11.764 48.34 11.928 47.996 12.04C47.66 12.152 47.296 12.208 46.904 12.208C46.304 12.208 45.804 12.08 45.404 11.824C45.004 11.576 44.636 11.224 44.3 10.768L45.152 10.096C45.368 10.44 45.608 10.708 45.872 10.9C46.144 11.092 46.492 11.188 46.916 11.188C47.148 11.188 47.36 11.156 47.552 11.092C47.752 11.028 47.924 10.936 48.068 10.816C48.212 10.696 48.324 10.552 48.404 10.384C48.492 10.216 48.536 10.032 48.536 9.832C48.536 9.352 48.384 8.976 48.08 8.704C47.776 8.432 47.384 8.296 46.904 8.296C46.608 8.296 46.344 8.336 46.112 8.416C45.88 8.496 45.656 8.604 45.44 8.74L45.656 7.888C45.2 7.736 44.864 7.488 44.648 7.144C44.44 6.8 44.336 6.396 44.336 5.932C44.336 5.572 44.4 5.26 44.528 4.996C44.664 4.724 44.836 4.5 45.044 4.324C45.26 4.14 45.504 4 45.776 3.904C46.048 3.808 46.324 3.752 46.604 3.736C46.66 3.736 46.74 3.732 46.844 3.724C46.956 3.716 47.072 3.712 47.192 3.712C47.312 3.704 47.428 3.696 47.54 3.688C47.652 3.68 47.74 3.672 47.804 3.664C48.164 3.632 48.48 3.58 48.752 3.508C49.024 3.428 49.332 3.324 49.676 3.196L49.412 4.324ZM46.916 7.324C47.324 7.324 47.656 7.196 47.912 6.94C48.176 6.684 48.308 6.36 48.308 5.968C48.308 5.56 48.176 5.248 47.912 5.032C47.648 4.816 47.312 4.708 46.904 4.708C46.496 4.708 46.156 4.824 45.884 5.056C45.62 5.28 45.488 5.584 45.488 5.968C45.488 6.376 45.612 6.704 45.86 6.952C46.108 7.2 46.46 7.324 46.916 7.324ZM53.54 5.344C53.492 5.288 53.432 5.228 53.36 5.164C53.288 5.092 53.204 5.028 53.108 4.972C53.012 4.908 52.908 4.856 52.796 4.816C52.684 4.776 52.56 4.756 52.424 4.756C52.2 4.756 52.024 4.784 51.896 4.84C51.768 4.888 51.668 4.948 51.596 5.02C51.532 5.092 51.488 5.172 51.464 5.26C51.448 5.34 51.44 5.416 51.44 5.488C51.44 5.744 51.532 5.936 51.716 6.064C51.9 6.184 52.152 6.284 52.472 6.364C52.712 6.428 52.948 6.496 53.18 6.568C53.412 6.64 53.62 6.744 53.804 6.88C53.988 7.008 54.136 7.184 54.248 7.408C54.368 7.632 54.428 7.924 54.428 8.284C54.428 8.532 54.38 8.772 54.284 9.004C54.188 9.236 54.044 9.44 53.852 9.616C53.668 9.792 53.444 9.932 53.18 10.036C52.916 10.14 52.616 10.192 52.28 10.192C51.864 10.192 51.48 10.112 51.128 9.952C50.784 9.792 50.472 9.532 50.192 9.172L50.984 8.5C51.16 8.708 51.344 8.872 51.536 8.992C51.728 9.112 51.968 9.172 52.256 9.172C52.536 9.172 52.776 9.104 52.976 8.968C53.176 8.832 53.276 8.64 53.276 8.392C53.276 8.088 53.164 7.864 52.94 7.72C52.716 7.568 52.36 7.432 51.872 7.312C51.648 7.256 51.44 7.192 51.248 7.12C51.056 7.04 50.888 6.94 50.744 6.82C50.6 6.692 50.488 6.536 50.408 6.352C50.328 6.16 50.288 5.928 50.288 5.656C50.288 5.376 50.336 5.12 50.432 4.888C50.536 4.648 50.676 4.444 50.852 4.276C51.028 4.108 51.236 3.976 51.476 3.88C51.716 3.784 51.976 3.736 52.256 3.736C52.672 3.736 53.024 3.804 53.312 3.94C53.608 4.068 53.912 4.284 54.224 4.588L53.54 5.344Z" fill="currentColor"/>
    <path d="M37.4792 2.25001C37.9708 2.17918 38.4917 2.71668 38.6417 3.45834C38.7917 4.19584 38.5208 4.85418 38.0292 4.92918C37.5417 5.00418 37.0167 4.46668 36.8625 3.72501C36.7083 2.98751 36.9875 2.32918 37.4792 2.25001ZM40.4583 2.25001C40.9542 2.32918 41.2292 2.98751 41.0833 3.72501C40.925 4.46668 40.4042 5.00418 39.9125 4.92918C39.4167 4.85418 39.1458 4.19584 39.3 3.45834C39.45 2.71668 39.9708 2.17918 40.4583 2.25001ZM35.25 4.16668C35.725 3.96251 36.3708 4.33335 36.7083 4.97918C37.025 5.63751 36.9167 6.32918 36.4458 6.53334C35.975 6.73751 35.3333 6.37084 35.0042 5.71668C34.675 5.06251 34.7917 4.36668 35.25 4.16668ZM42.75 4.16668C43.2083 4.36668 43.325 5.06251 42.9958 5.71668C42.6667 6.37084 42.025 6.73751 41.5542 6.53334C41.0833 6.32918 40.975 5.63751 41.2917 4.97918C41.6292 4.33335 42.275 3.96251 42.75 4.16668ZM42.0542 8.65834C42.0708 9.05001 41.7708 9.48334 41.4125 9.64584C40.6667 9.98751 39.7833 9.27918 38.9542 9.27918C38.125 9.27918 37.2333 10.0167 36.5 9.64584C36.0833 9.44168 35.7958 8.90001 35.85 8.45001C35.925 7.82918 36.6708 7.49584 37.1125 7.04168C37.7 6.45418 38.1167 5.35001 38.9542 5.35001C39.7875 5.35001 40.2292 6.43751 40.7917 7.04168C41.2542 7.55001 42.025 7.97918 42.0542 8.65834Z" fill="currentColor"/>
</svg>
